<?xml version="1.0" encoding="utf-8"?>
<!-- Generator: Adobe Illustrator 25.4.1, SVG Export Plug-In . SVG Version: 6.00 Build 0)  -->
<svg version="1.1" id="Layer_1" xmlns="http://www.w3.org/2000/svg" xmlns:xlink="http://www.w3.org/1999/xlink" x="0px" y="0px"
	 viewBox="0 0 201.1 274.3" style="enable-background:new 0 0 201.1 274.3;" xml:space="preserve">
<style type="text/css">
	.st0{fill:#FFFFFF;}
</style>
<g>
	<g>
		<path class="st0" d="M34.7,241.5v-13.7c0-38.1,29.5-69,66-69l0,0c36.4,0,66,30.9,66,69V244"/>
		<path d="M166.7,246.8c-1.6,0-2.8-1.3-2.8-2.8v-16.2c0-36.5-28.3-66.2-63.1-66.2c-34.8,0-63.1,29.7-63.1,66.2v13.7
			c0,1.6-1.3,2.8-2.8,2.8c-1.6,0-2.8-1.3-2.8-2.8v-13.7c0-39.6,30.9-71.9,68.8-71.9c37.9,0,68.8,32.2,68.8,71.9V244
			C169.5,245.6,168.2,246.8,166.7,246.8z"/>
	</g>
	<g>
		<path d="M160.5,78.7c0-5,0.2-11.7-0.4-15.3c-5.5-31.2-33.1-50.8-67.3-50.8c-38.2,0-69.2,29.5-69.2,66c0,19.1,7.3,36.3,20.8,48.3
			l0.1,8.6h13.6l-5.8-11.7l1.5-16.7l19.4-28.3L160.5,78.7z"/>
		<path d="M58.1,138.4H44.5c-1.6,0-2.8-1.2-2.8-2.8l-0.1-7.4c-13.5-12.4-20.9-30-20.9-49.6c0-38,32.3-68.8,72.1-68.8
			c36.3,0,64.5,21.4,70.1,53.1c0.5,3.1,0.5,7.9,0.5,12.5c0,1.1,0,2.2,0,3.3c0,1.6-1.3,2.8-2.8,2.8l-85.8,0.2l-18.2,26.5l-1.3,15.1
			l5.4,10.9c0.4,0.9,0.4,1.9-0.1,2.8C60,137.9,59,138.4,58.1,138.4z M47.3,132.7h6.2l-3.8-7.5c-0.2-0.5-0.3-1-0.3-1.5l1.5-16.7
			c0-0.5,0.2-1,0.5-1.4l19.4-28.3c0.5-0.8,1.4-1.2,2.3-1.2l84.5-0.2c0-0.2,0-0.3,0-0.5c0-4.2,0.1-8.9-0.4-11.5
			c-5.1-29-31-48.4-64.5-48.4c-36.6,0-66.4,28.3-66.4,63.1c0,18.4,7.1,34.8,19.9,46.2c0.6,0.5,0.9,1.3,1,2.1L47.3,132.7z
			 M160.5,78.7L160.5,78.7L160.5,78.7z"/>
	</g>
	<g>
		<path class="st0" d="M123.8,151.4c-1.4,1.4-2.2,7.3-2.2,11c-12-0.2-27.5,0-39.4,0c0-7.3,0.6-10.7-9.3-13.8
			c-7.7-2.4-11.7-6.8-16.1-13.5c-0.6-0.9-3.9-9.3-3.3-9.9c-2.3,2-5.4,3.3-8.7,3.3c-7.4,0-13.3-6-13.3-13.5c0-7.5,6-13.5,13.3-13.5
			c2.6,0,5.1,0.8,7.1,2.1l19.7-36.2h88.7c0,0,0,38.1,0,38.1c0,7.3-1.8,14.9-4.7,21.5c-2.5,5.8-6.2,11.2-11.3,15.2
			c-2.8,2.2-6,3.9-9.4,5.1C130.4,148.8,126.2,149,123.8,151.4z"/>
		<path d="M121.7,165.2C121.7,165.2,121.7,165.2,121.7,165.2c-8.2-0.1-17.9-0.1-27.3,0c-4.2,0-8.4,0-12.1,0c-1.6,0-2.8-1.3-2.8-2.8
			l0-1.1c0-6.3,0-7.7-7.3-9.9c-8.4-2.6-12.9-7.4-17.7-14.7c0-0.1-1.9-3.4-2.9-6.8c-2.1,0.9-4.3,1.4-6.6,1.4
			c-8.9,0-16.2-7.3-16.2-16.3S36,98.5,44.9,98.5c2.1,0,4.1,0.4,6,1.2l18.4-33.8c0.5-0.9,1.5-1.5,2.5-1.5h88.7c1.6,0,2.8,1.3,2.8,2.8
			v38.1c0,7.3-1.8,15.3-5,22.7c-3,6.8-7,12.3-12.1,16.3c-3,2.4-6.5,4.2-10.2,5.5c-1.7,0.6-3.3,1-4.7,1.3c-2.4,0.6-4.4,1.1-5.4,2.1
			c-0.6,0.9-1.4,5.1-1.4,9c0,0.8-0.3,1.5-0.8,2C123.1,164.9,122.4,165.2,121.7,165.2z M56.4,125.6c0.3,1.7,2.4,6.9,2.9,7.9
			c4.2,6.5,7.7,10.2,14.6,12.3c10,3.1,11.2,7.1,11.3,13.7c3,0,6.1,0,9.3,0c8.4,0,17-0.1,24.6,0c0.2-3.2,0.9-8.1,2.9-10.1l0,0
			c2.1-2.2,5-2.9,8.1-3.7c1.4-0.3,2.8-0.7,4.2-1.2c3.2-1.1,6-2.7,8.6-4.7c4.3-3.4,7.8-8.1,10.4-14.1c2.9-6.7,4.5-13.9,4.5-20.4V70
			H73.4l-18.9,34.7c-0.4,0.7-1,1.2-1.8,1.4c-0.8,0.2-1.6,0.1-2.2-0.4c-1.7-1.1-3.6-1.7-5.6-1.7c-5.8,0-10.5,4.8-10.5,10.7
			c0,5.9,4.7,10.7,10.5,10.7c2.5,0,4.9-0.9,6.8-2.6c0,0,0,0,0,0c1.2-1,3-0.9,4,0.3C56.3,123.9,56.5,124.8,56.4,125.6z M123.8,151.4
			L123.8,151.4L123.8,151.4z"/>
	</g>
	<path d="M99.2,101.9c-5.6,0-10.4-2.3-10.7-2.4c-1.4-0.7-2-2.4-1.3-3.8c0.7-1.4,2.4-2,3.8-1.3l0,0c0.1,0,8.6,4,14.3,0.2
		c1.3-0.9,3.1-0.5,3.9,0.8c0.9,1.3,0.5,3.1-0.8,3.9C105.4,101.2,102.2,101.9,99.2,101.9z"/>
	<path d="M145.2,101.9c-5.6,0-10.4-2.3-10.7-2.4c-1.4-0.7-2-2.4-1.3-3.8c0.7-1.4,2.4-2,3.8-1.3l0,0c0.1,0,8.6,4,14.3,0.2
		c1.3-0.9,3.1-0.5,3.9,0.8c0.9,1.3,0.5,3.1-0.8,3.9C151.5,101.2,148.2,101.9,145.2,101.9z"/>
	<path d="M123.7,114.5c-1.7,0-3.4-0.5-4.9-1.5c-1.3-0.9-1.7-2.6-0.8-3.9c0.9-1.3,2.6-1.7,3.9-0.8c1.6,1,3.3,0.3,3.9,0
		c1.5-0.8,2.5-2.3,2.5-3.8c0-2.4-2.2-4.4-4.8-4.4c-1.6,0-2.8-1.3-2.8-2.8s1.3-2.8,2.8-2.8c5.8,0,10.5,4.5,10.5,10.1
		c0,3.6-2.1,7-5.5,8.8C126.9,114.1,125.3,114.5,123.7,114.5z"/>
	<g>
		<g>
			<path class="st0" d="M152.6,141.7l-23.2-18.3c-2.3-1.6-5.5-1-7.1,1.3c-1.6,2.3-1,5.5,1.3,7.1l21,16.7v41.2c0,2.8,2.3,5.1,5.1,5.1
				c2.8,0,5.1-2.3,5.1-5.1v-43.3c0-0.1,0-0.2,0-0.3C154.9,144.5,154.1,142.8,152.6,141.7z"/>
			<path d="M149.7,197.8c-4.4,0-8-3.6-8-8V150l-19.9-15.9c-3.5-2.4-4.4-7.3-1.9-10.9c2.5-3.6,7.5-4.5,11.1-2.1l23.3,18.3
				c2.2,1.5,3.4,4.1,3.3,6.8c0,0.1,0,0.3,0,0.4v43.3C157.6,194.2,154.1,197.8,149.7,197.8z M126.5,125.3c-0.7,0-1.5,0.3-1.9,1
				c-0.7,1-0.4,2.5,0.6,3.2l21.2,16.9c0.7,0.5,1.1,1.4,1.1,2.2v41.2c0,1.3,1,2.3,2.3,2.3s2.3-1,2.3-2.3l0-43.4c0-0.1,0-0.3,0-0.4
				c0.1-0.8-0.3-1.6-1-2c0,0-0.1-0.1-0.1-0.1l-23.2-18.3C127.3,125.5,126.9,125.3,126.5,125.3z"/>
		</g>
		<g>
			<g>
				<g>
					<path class="st0" d="M184.1,171.4c1.6,0,2.7,1.3,2.4,2.8l-11.5,79.2c-0.2,1.5-1.7,2.8-3.2,2.8h-39.3c-1.6,0-3-1.3-3.2-2.8
						l-10.6-79.2c-0.2-1.5,0.9-2.8,2.5-2.8H184.1z"/>
				</g>
				<path d="M167.5,259h-30.6c-5.3,0-10.2-4.3-10.9-9.6l-9.5-70.6c-0.4-2.7,0.4-5.3,2.1-7.3c1.7-1.9,4.2-3.1,6.9-3.1h54.3
					c2.7,0,5.2,1.1,6.9,3.1c1.7,1.9,2.4,4.6,2,7.3l-10.2,70.6C177.8,254.9,172.9,259,167.5,259z M125.5,174.2c-1.1,0-2,0.4-2.6,1.1
					c-0.6,0.7-0.9,1.7-0.8,2.8l9.5,70.6c0.3,2.5,2.8,4.6,5.3,4.6h30.6c2.5,0,5-2.2,5.4-4.6l10.2-70.6c0.2-1.1-0.1-2-0.7-2.7
					c-0.6-0.7-1.5-1.1-2.6-1.1H125.5z"/>
			</g>
			<g>
				<line class="st0" x1="120.5" y1="187" x2="141" y2="187"/>
				<path d="M141,189.8h-20.6c-1.6,0-2.8-1.3-2.8-2.8c0-1.6,1.3-2.8,2.8-2.8H141c1.6,0,2.8,1.3,2.8,2.8
					C143.9,188.5,142.6,189.8,141,189.8z"/>
			</g>
			<g>
				<line class="st0" x1="122" y1="198.1" x2="141" y2="198.1"/>
				<path d="M141,200.9H122c-1.6,0-2.8-1.3-2.8-2.8c0-1.6,1.3-2.8,2.8-2.8H141c1.6,0,2.8,1.3,2.8,2.8
					C143.9,199.6,142.6,200.9,141,200.9z"/>
			</g>
			<g>
				<line class="st0" x1="124.9" y1="220.2" x2="139.9" y2="220.2"/>
				<path d="M139.9,223.1h-15c-1.6,0-2.8-1.3-2.8-2.8c0-1.6,1.3-2.8,2.8-2.8h15c1.6,0,2.8,1.3,2.8,2.8
					C142.7,221.8,141.5,223.1,139.9,223.1z"/>
			</g>
			<g>
				<line class="st0" x1="126.4" y1="231.3" x2="139.9" y2="231.3"/>
				<path d="M139.9,234.2h-13.5c-1.6,0-2.8-1.3-2.8-2.8s1.3-2.8,2.8-2.8h13.5c1.6,0,2.8,1.3,2.8,2.8S141.5,234.2,139.9,234.2z"/>
			</g>
			<g>
				<line class="st0" x1="123.5" y1="209.2" x2="141" y2="209.2"/>
				<path d="M141,212h-17.5c-1.6,0-2.8-1.3-2.8-2.8s1.3-2.8,2.8-2.8H141c1.6,0,2.8,1.3,2.8,2.8S142.6,212,141,212z"/>
			</g>
		</g>
		<g>
			<g>
				<path class="st0" d="M189.7,209.8c0-13.7-8.4-14.6-8.4-14.6h-9.1c-2.7,0-4.9,2.2-4.9,4.9c0,2.7,2.2,4.9,4.9,4.9
					c-2.7,0-4.9,2.2-4.9,4.9c0,2.7,2.2,4.9,4.9,4.9c-2.7,0-4.9,2.2-4.9,4.9c0,4.9,5.4,4.9,8.1,4.9c-2.7,0-5.5,2.2-5.5,4.9
					c0,2.7,2.5,4.9,5.3,4.9h6.1C190.4,234.1,189.7,223.5,189.7,209.8z"/>
				<path d="M181.3,236.9h-6.1c-4.4,0-8.1-3.5-8.1-7.7c0-1.2,0.3-2.4,0.9-3.4c-2.3-1.3-3.6-3.5-3.6-6.3c0-1.8,0.7-3.5,1.7-4.9
					c-1.1-1.3-1.7-3-1.7-4.9s0.7-3.5,1.7-4.9c-1.1-1.3-1.7-3-1.7-4.9c0-4.2,3.5-7.7,7.8-7.7h9.1c0.1,0,0.2,0,0.3,0
					c0.4,0,10.9,1.4,10.9,17.4l0,2.8c0,9.8,0.1,17.5-4.1,21.6C186.7,236,184.3,236.9,181.3,236.9z M175.5,227.2
					c-1.3,0-2.7,1.1-2.7,2c0,1,1.2,2,2.4,2h6.1c1.9,0,2.7-0.6,3.1-1.1c2.5-2.5,2.4-9.8,2.4-17.6l0-2.8c0-10-4.9-11.5-5.8-11.7h-8.9
					c-1.1,0-2.1,0.9-2.1,2c0,1.1,0.9,2,2.1,2c1.6,0,2.8,1.3,2.8,2.8c0,1.6-1.3,2.8-2.8,2.8c-1.1,0-2.1,0.9-2.1,2c0,1.1,0.9,2,2.1,2
					c1.6,0,2.8,1.3,2.8,2.8s-1.3,2.8-2.8,2.8c-1.1,0-2.1,0.9-2.1,2c0,0.9,0.3,1.3,1.1,1.6c1.2,0.4,3.1,0.4,4.1,0.4l0,0
					c1.6,0,2.9,1.3,2.9,2.8C178.3,225.9,177,227.2,175.5,227.2z"/>
			</g>
			<g>
				<line class="st0" x1="171.6" y1="204.9" x2="182.4" y2="204.9"/>
				<path d="M182.4,207.7h-10.8c-1.6,0-2.8-1.3-2.8-2.8c0-1.6,1.3-2.8,2.8-2.8h10.8c1.6,0,2.8,1.3,2.8,2.8
					C185.3,206.5,184,207.7,182.4,207.7z"/>
			</g>
			<g>
				<line class="st0" x1="171.6" y1="214.7" x2="182.4" y2="214.7"/>
				<path d="M182.4,217.5h-10.8c-1.6,0-2.8-1.3-2.8-2.8s1.3-2.8,2.8-2.8h10.8c1.6,0,2.8,1.3,2.8,2.8S184,217.5,182.4,217.5z"/>
			</g>
			<g>
				<line class="st0" x1="171.6" y1="224.4" x2="180.2" y2="224.4"/>
				<path d="M180.2,227.3h-8.6c-1.6,0-2.8-1.3-2.8-2.8c0-1.6,1.3-2.8,2.8-2.8h8.6c1.6,0,2.8,1.3,2.8,2.8
					C183.1,226,181.8,227.3,180.2,227.3z"/>
			</g>
		</g>
	</g>
</g>
</svg>
