<?xml version="1.0" encoding="iso-8859-1"?>
<!-- Generator: Adobe Illustrator 25.4.1, SVG Export Plug-In . SVG Version: 6.00 Build 0)  -->
<svg version="1.1" id="&#xB808;&#xC774;&#xC5B4;_1" xmlns="http://www.w3.org/2000/svg" xmlns:xlink="http://www.w3.org/1999/xlink"
	 x="0px" y="0px" viewBox="0 0 59.087 62.217" style="enable-background:new 0 0 59.087 62.217;" xml:space="preserve">
<g>
	<g>
		<defs>
			<rect id="SVGID_1_" x="2.141" y="2.458" width="54.5" height="56.562"/>
		</defs>
		<clipPath id="SVGID_00000008127514466285525140000002341719432945415080_">
			<use xlink:href="#SVGID_1_"  style="overflow:visible;"/>
		</clipPath>
		
			<path style="clip-path:url(#SVGID_00000008127514466285525140000002341719432945415080_);stroke:#050101;stroke-miterlimit:10;" d="
			M56.129,22.358L30.057,2.681c-0.394-0.297-0.937-0.297-1.332,0L2.654,22.358c-0.487,0.368-0.583,1.06-0.216,1.547
			c0.368,0.487,1.06,0.584,1.548,0.216l0.881-0.664v34.459c0,0.61,0.495,1.105,1.105,1.105h46.841c0.61,0,1.105-0.495,1.105-1.105
			V23.457l0.881,0.664c0.2,0.151,0.433,0.223,0.665,0.223c0.334,0,0.665-0.152,0.883-0.44
			C56.712,23.418,56.615,22.725,56.129,22.358L56.129,22.358z M17.239,56.811v-8.617h8.617v8.617H17.239z M33.7,45.984h-8.617
			v-8.617H33.7V45.984z M30.717,48.194v8.617h-2.651v-8.617H30.717z M32.926,56.811v-8.617h8.617v8.617H32.926z M51.707,56.811
			h-3.093V25.215c0-0.61-0.495-1.105-1.105-1.105H34.363c-0.61,0-1.105,0.495-1.105,1.105c0,0.61,0.495,1.105,1.105,1.105h12.042
			v30.491h-2.651v-9.722c0-0.61-0.495-1.105-1.105-1.105h-6.739v-9.722c0-0.61-0.495-1.105-1.105-1.105H23.978
			c-0.61,0-1.105,0.495-1.105,1.105v9.722h-6.739c-0.61,0-1.105,0.495-1.105,1.105v9.722h-2.651V26.32h22.61
			c0.61,0,1.105-0.495,1.105-1.105c0-0.61-0.495-1.105-1.105-1.105H11.274c-0.61,0-1.105,0.495-1.105,1.105v31.595H7.076V21.788
			L29.391,4.947l22.316,16.842V56.811z M51.707,56.811"/>
	</g>
</g>
<circle style="stroke:#040000;stroke-miterlimit:10;" cx="29.391" cy="16.854" r="3.25"/>
</svg>
