<?xml version="1.0" encoding="iso-8859-1"?>
<!-- Generator: Adobe Illustrator 25.4.1, SVG Export Plug-In . SVG Version: 6.00 Build 0)  -->
<svg version="1.1" id="&#xB808;&#xC774;&#xC5B4;_1" xmlns="http://www.w3.org/2000/svg" xmlns:xlink="http://www.w3.org/1999/xlink"
	 x="0px" y="0px" viewBox="0 0 417 360.8" style="enable-background:new 0 0 417 360.8;" xml:space="preserve">
<g>
	<path style="stroke:#070505;stroke-width:4;stroke-miterlimit:10;" d="M160.996,174.647H118.57c-3.109,0-5.625,2.516-5.625,5.625
		c0,3.106,2.516,5.625,5.625,5.625h42.426c3.109,0,5.625-2.519,5.625-5.625C166.621,177.163,164.105,174.647,160.996,174.647
		L160.996,174.647z M160.996,174.647"/>
	<path style="stroke:#070505;stroke-width:6;stroke-miterlimit:10;" d="M394.855,193.589l-24.152-10.008l-7.777-20.406
		c-1.106-2.903-4.356-4.36-7.258-3.254c-2.902,1.105-4.359,4.359-3.254,7.261l8.641,22.672c0.55,1.446,1.672,2.602,3.101,3.192
		l26.383,10.933c0.734,0.305,1.211,1.016,1.211,1.813v8.25h-42.863c-1.789,0-3.473,0.851-4.532,2.293
		c-1.058,1.445-1.371,3.301-0.835,5.012l7.578,24.242c0.734,2.347,2.906,3.949,5.367,3.949h35.285v32.691h-25.555
		c-7.031-17.308-24.023-29.547-43.824-29.547c-19.805,0-36.793,12.239-43.828,29.547h-17.977V98.007h64.157
		c0.816,0,1.531,0.492,1.824,1.261l26.424,69.781c1.11,2.903,4.36,4.36,7.262,3.254c2.902-1.105,4.36-4.355,3.254-7.258
		l-26.425-69.777c-1.937-5.089-6.894-8.511-12.339-8.511h-64.157V30.261c0-3.106-2.515-5.625-5.625-5.625H24.625
		c-3.105,0-5.625,2.519-5.625,5.625v80.625c0,3.105,2.52,5.625,5.625,5.625c3.105,0,5.625-2.52,5.625-5.625v-75h219.066v246.343
		H143.457c-7.035-17.308-24.023-29.547-43.828-29.547s-36.793,12.239-43.828,29.547H30.25V110.421c0-3.106-2.52-5.625-5.625-5.625
		c-3.105,0-5.625,2.519-5.625,5.625v201.676c0,3.105,2.52,5.625,5.625,5.625h31.18c7.031,17.308,24.023,29.546,43.824,29.546
		c19.805,0,36.793-12.242,43.828-29.546H261.75c3.105,0,5.625-2.52,5.625-5.625c0-3.11-2.52-5.625-5.625-5.625H146.469
		c0.293-2.125,0.453-4.293,0.453-6.497c0-2.207-0.16-4.371-0.457-6.5h129.066c-0.293,2.129-0.457,4.293-0.457,6.5
		c0,2.204,0.164,4.372,0.457,6.497h-15.097c-3.11,0-5.625,2.515-5.625,5.625c0,3.105,2.515,5.625,5.625,5.625h18.109
		c7.035,17.308,24.023,29.546,43.828,29.546c19.801,0,36.793-12.238,43.824-29.546h31.18c3.105,0,5.625-2.52,5.625-5.625V205.792
		C403,200.436,399.805,195.651,394.855,193.589L394.855,193.589z M30.25,306.472v-12.993h22.543
		c-0.293,2.125-0.457,4.289-0.457,6.496c0,2.204,0.164,4.372,0.457,6.497H30.25z M99.629,336.018
		c-19.875,0-36.043-16.168-36.043-36.043s16.168-36.046,36.043-36.046s36.047,16.171,36.047,36.046
		C135.672,319.85,119.504,336.018,99.629,336.018L99.629,336.018z M356.539,225.292h10.969v12.992h-6.91L356.539,225.292z
		 M378.758,238.284v-12.992h12.992v12.992H378.758z M322.371,336.018c-19.875,0-36.047-16.168-36.047-36.043
		s16.172-36.046,36.047-36.046s36.043,16.171,36.043,36.046S342.246,336.018,322.371,336.018L322.371,336.018z M391.75,306.472
		h-22.543c0.293-2.125,0.457-4.293,0.457-6.497c0-2.207-0.164-4.371-0.457-6.5h22.543V306.472z M391.75,306.472"/>
	<path style="stroke:#070505;stroke-width:4;stroke-miterlimit:10;" d="M313.238,111.007h-34.05c-3.11,0-5.626,2.515-5.626,5.625
		v71.215c0,3.105,2.516,5.625,5.626,5.625h61.179c1.852,0,3.582-0.911,4.633-2.434c1.051-1.524,1.285-3.465,0.625-5.195
		l-27.129-71.215C317.664,112.448,315.574,111.007,313.238,111.007L313.238,111.007z M284.812,182.222v-59.965h24.551l22.844,59.965
		H284.812z M284.812,182.222"/>
	<path style="stroke:#070505;stroke-width:4;stroke-miterlimit:10;" d="M185.242,210.14c3.106,0,5.625-2.52,5.625-5.626V113.6
		c0-3.109-2.519-5.625-5.625-5.625H94.324c-3.105,0-5.625,2.516-5.625,5.625v90.914c0,3.106,2.52,5.626,5.625,5.626H185.242z
		 M133.285,119.225h12.996v16.563l-4.523-1.695c-1.274-0.481-2.676-0.481-3.949,0l-4.524,1.695V119.225z M99.953,119.225h22.082
		v24.68c0,1.844,0.906,3.57,2.422,4.625c0.957,0.66,2.074,1,3.207,1c0.664,0,1.332-0.117,1.973-0.359l10.148-3.805l10.145,3.805
		c1.73,0.648,3.664,0.406,5.179-0.645c1.516-1.051,2.422-2.777,2.422-4.621v-24.68h22.086v79.665H99.949v-79.665H99.953z
		 M99.953,119.225"/>
</g>
</svg>
