<?xml version="1.0" encoding="iso-8859-1"?>
<!-- Generator: Adobe Illustrator 25.4.1, SVG Export Plug-In . SVG Version: 6.00 Build 0)  -->
<svg version="1.1" id="&#xB808;&#xC774;&#xC5B4;_1" xmlns="http://www.w3.org/2000/svg" xmlns:xlink="http://www.w3.org/1999/xlink"
	 x="0px" y="0px" viewBox="0 0 27.812 28.713" style="enable-background:new 0 0 27.812 28.713;" xml:space="preserve">
<g>
	<path d="M6.771,21.169v-2.608c0-0.449-0.364-0.812-0.812-0.812c-0.449,0-0.812,0.364-0.812,0.812v2.608
		c-0.717,0.314-1.219,1.03-1.219,1.861c0,1.12,0.911,2.031,2.031,2.031s2.031-0.911,2.031-2.031
		C7.989,22.199,7.487,21.483,6.771,21.169L6.771,21.169z M6.771,21.169"/>
	<path d="M9.208,19.396V5.155c0-1.792-1.458-3.25-3.25-3.25s-3.25,1.458-3.25,3.25v14.241c-1.038,0.924-1.625,2.227-1.625,3.634
		c0,2.688,2.187,4.875,4.875,4.875s4.875-2.187,4.875-4.875C10.833,21.623,10.246,20.32,9.208,19.396L9.208,19.396z M5.958,26.28
		c-1.792,0-3.25-1.458-3.25-3.25c0-1.032,0.474-1.98,1.3-2.6c0.204-0.153,0.325-0.394,0.325-0.65V5.155
		c0-0.896,0.729-1.625,1.625-1.625s1.625,0.729,1.625,1.625V19.78c0,0.255,0.12,0.496,0.325,0.65c0.827,0.621,1.3,1.569,1.3,2.6
		C9.208,24.822,7.75,26.28,5.958,26.28L5.958,26.28z M5.958,26.28"/>
	<path d="M26.271,9.217h-1.289l0.644-0.644c0.317-0.317,0.317-0.832,0-1.149c-0.317-0.317-0.832-0.317-1.149,0l-1.793,1.793h-1.001
		c-0.129-0.432-0.358-0.82-0.66-1.14l0.501-0.868l2.45-0.656c0.433-0.116,0.691-0.562,0.574-0.995
		c-0.116-0.433-0.562-0.691-0.995-0.575l-0.88,0.236l0.645-1.116c0.224-0.389,0.091-0.885-0.298-1.11
		c-0.389-0.224-0.885-0.091-1.11,0.298l-0.644,1.116l-0.236-0.88c-0.116-0.433-0.562-0.691-0.995-0.574
		c-0.433,0.116-0.691,0.562-0.574,0.995l0.656,2.45l-0.501,0.867c-0.436-0.104-0.881-0.104-1.317,0l-0.501-0.867l0.656-2.45
		c0.116-0.433-0.141-0.879-0.574-0.995c-0.433-0.116-0.879,0.141-0.995,0.574l-0.236,0.88l-0.644-1.116
		c-0.225-0.389-0.721-0.522-1.11-0.297c-0.389,0.224-0.522,0.721-0.297,1.11l0.644,1.116l-0.88-0.236
		c-0.434-0.116-0.879,0.141-0.995,0.574c-0.116,0.434,0.141,0.879,0.574,0.995l2.45,0.656l0.501,0.869
		c-0.302,0.319-0.531,0.708-0.66,1.139h-1.001l-1.793-1.793c-0.317-0.317-0.832-0.317-1.149,0c-0.317,0.317-0.317,0.832,0,1.149
		l0.644,0.644h-1.289c-0.449,0-0.812,0.364-0.812,0.812s0.364,0.812,0.812,0.812h1.289l-0.644,0.644
		c-0.513,0.513-0.143,1.387,0.574,1.387c0.208,0,0.416-0.079,0.574-0.238l1.793-1.793h1.001c0.129,0.432,0.358,0.82,0.66,1.14
		l-0.501,0.868l-2.45,0.656c-0.433,0.116-0.691,0.562-0.574,0.995c0.116,0.433,0.561,0.691,0.995,0.575l0.88-0.236l-0.645,1.116
		c-0.314,0.544,0.084,1.219,0.703,1.219c0.281,0,0.554-0.146,0.705-0.407l0.644-1.116l0.236,0.88
		c0.097,0.363,0.426,0.602,0.784,0.602c0.534,0,0.924-0.507,0.785-1.023l-0.656-2.449l0.501-0.867c0.436,0.104,0.881,0.104,1.317,0
		l0.501,0.867l-0.656,2.45c-0.138,0.516,0.251,1.023,0.785,1.023c0.359,0,0.687-0.239,0.784-0.602l0.236-0.88l0.644,1.116
		c0.151,0.261,0.424,0.407,0.705,0.407c0.618,0,1.017-0.674,0.703-1.219l-0.645-1.116l0.88,0.236
		c0.433,0.116,0.879-0.141,0.995-0.574c0.116-0.434-0.141-0.879-0.574-0.995l-2.45-0.656l-0.501-0.868
		c0.302-0.319,0.531-0.708,0.66-1.14h1.001l1.793,1.793c0.159,0.159,0.367,0.238,0.574,0.238c0.717,0,1.088-0.874,0.574-1.387
		l-0.644-0.644h1.288c0.449,0,0.813-0.364,0.813-0.812S26.72,9.217,26.271,9.217L26.271,9.217z M17.739,10.03
		c0-0.672,0.547-1.219,1.219-1.219s1.219,0.547,1.219,1.219s-0.547,1.219-1.219,1.219S17.739,10.702,17.739,10.03L17.739,10.03z
		 M17.739,10.03"/>
</g>
</svg>
