<?xml version="1.0" encoding="iso-8859-1"?>
<!-- Generator: Adobe Illustrator 25.4.1, SVG Export Plug-In . SVG Version: 6.00 Build 0)  -->
<svg version="1.1" id="&#xB808;&#xC774;&#xC5B4;_1" xmlns="http://www.w3.org/2000/svg" xmlns:xlink="http://www.w3.org/1999/xlink"
	 x="0px" y="0px" viewBox="0 0 39.13 39.611" style="enable-background:new 0 0 39.13 39.611;" xml:space="preserve">
<g>
	<path d="M28.276,2.422l-0.749,1.909c4.122,1.617,6.917,5.524,7.12,9.953l2.049-0.094C36.456,8.953,33.151,4.334,28.276,2.422
		L28.276,2.422z M28.276,2.422"/>
	<path d="M30.55,14.472l2.049-0.094c-0.166-3.622-2.45-6.816-5.82-8.138l-0.749,1.909C28.647,9.176,30.421,11.657,30.55,14.472
		L30.55,14.472z M30.55,14.472"/>
	<path d="M10.864,4.263l-0.749-1.909c-4.875,1.912-8.18,6.532-8.42,11.769l2.049,0.094C3.947,9.786,6.742,5.879,10.864,4.263
		L10.864,4.263z M10.864,4.263"/>
	<path d="M5.793,14.31l2.049,0.094c0.129-2.814,1.903-5.296,4.52-6.323l-0.749-1.909C8.243,7.494,5.959,10.688,5.793,14.31
		L5.793,14.31z M5.793,14.31"/>
	<path d="M29.591,17.94l-6.828-2.514c-0.14-0.246-0.305-0.476-0.491-0.687V2.283h-1.025c-2.827,0-5.127,2.3-5.127,5.127v7.329
		c-0.186,0.211-0.351,0.441-0.491,0.687L8.801,17.94c-2.008,0.739-3.357,2.673-3.357,4.812c0,0.604,0.107,1.2,0.317,1.771
		l0.355,0.962l9.592-3.531l-1.485,9.177h-3.229v6.152h16.406V31.13H24.17l-1.485-9.177l9.592,3.531l0.354-0.962
		c0.473-1.285,0.418-2.677-0.157-3.921C31.9,19.358,30.876,18.413,29.591,17.94L29.591,17.94z M17.145,17.447
		c0-1.131,0.92-2.051,2.051-2.051c1.131,0,2.051,0.92,2.051,2.051c0,1.131-0.92,2.051-2.051,2.051
		C18.065,19.498,17.145,18.578,17.145,17.447L17.145,17.447z M20.221,4.509v8.967c-0.328-0.085-0.671-0.13-1.025-0.13
		s-0.697,0.045-1.025,0.13V7.41C18.17,6.073,19.027,4.932,20.221,4.509L20.221,4.509z M7.494,22.752c0-1.284,0.81-2.443,2.015-2.887
		l5.601-2.062c0.061,0.712,0.304,1.373,0.683,1.934l-8.299,3.054C7.495,22.778,7.494,22.765,7.494,22.752L7.494,22.752z
		 M25.348,35.232H13.043v-2.051h12.305V35.232z M16.299,31.13l1.586-9.797c0.412,0.14,0.852,0.216,1.311,0.216
		c0.459,0,0.899-0.077,1.311-0.216l1.586,9.797H16.299z M22.597,19.737c0.38-0.562,0.622-1.223,0.684-1.934l5.601,2.062
		c0.771,0.284,1.386,0.851,1.73,1.597c0.195,0.424,0.291,0.877,0.285,1.33L22.597,19.737z M22.597,19.737"/>
</g>
</svg>
