<?xml version="1.0" encoding="utf-8"?>
<!-- Generator: Adobe Illustrator 25.4.1, SVG Export Plug-In . SVG Version: 6.00 Build 0)  -->
<svg version="1.1" id="레이어_1" xmlns="http://www.w3.org/2000/svg" xmlns:xlink="http://www.w3.org/1999/xlink" x="0px"
	 y="0px" viewBox="0 0 41.61 42.1" style="enable-background:new 0 0 41.61 42.1;" xml:space="preserve">
<style type="text/css">
	.st0{stroke:#000000;stroke-width:0.5;stroke-miterlimit:10;}
	.st1{fill:none;stroke:#000000;stroke-width:2;stroke-miterlimit:10;}
</style>
<path class="st0" d="M29.99,13.47c-1.3-1.3-3.02-2.01-4.86-2.01c-1.66,0-3.23,0.59-4.48,1.66c-2.69-2.31-6.83-2.15-9.33,0.35
	C8.78,16,8.69,20.1,10.97,22.84c-0.89,0.82-0.99,2.23-0.11,3.11c0.43,0.43,1.02,0.65,1.62,0.62c-0.07,1.25,0.99,2.31,2.24,2.24
	c-0.07,1.25,0.99,2.31,2.24,2.24c-0.11,2.02,2.39,2.94,3.73,1.51c0.35,0.33,0.75,0.64,1.34,0.72c1.3,0.17,2.48-0.93,2.39-2.24
	c1.24,0.06,2.32-1,2.24-2.24c0.34,0.01,0.68-0.05,1.01-0.21c0.8-0.37,1.28-1.17,1.23-2.03c0.55,0.03,1.1-0.15,1.53-0.53
	c1.23-1.09,0.76-2.39-0.05-3.29c1.04-1.24,1.61-2.79,1.61-4.42C32,16.49,31.29,14.77,29.99,13.47L29.99,13.47z M12.36,25.49
	c-0.91,0-1.38-1.14-0.74-1.78l1.92-1.92c0.95-0.95,2.43,0.52,1.48,1.48l-1.92,1.92C12.9,25.38,12.64,25.49,12.36,25.49L12.36,25.49z
	 M14.6,27.73c-0.91,0-1.38-1.14-0.74-1.78l1.92-1.92c0.95-0.95,2.43,0.52,1.48,1.48l-1.92,1.92C15.14,27.62,14.88,27.73,14.6,27.73
	L14.6,27.73z M16.1,29.66c-0.4-0.4-0.4-1.08,0-1.48l1.92-1.92c0.95-0.95,2.43,0.52,1.48,1.48l-1.92,1.92
	C17.17,30.07,16.51,30.07,16.1,29.66L16.1,29.66z M18.34,31.9c-0.4-0.4-0.4-1.07,0-1.48l1.92-1.92c0.95-0.95,2.43,0.52,1.48,1.48
	l-1.92,1.92C19.41,32.31,18.75,32.31,18.34,31.9L18.34,31.9z M23.34,31.3c-0.03,0.27-0.17,0.52-0.4,0.69
	c-0.5,0.39-1.07,0.2-1.49-0.2c0.47-0.47,1.09-0.95,1.41-1.54C23.16,30.53,23.39,30.87,23.34,31.3L23.34,31.3z M29.82,25.16
	c-0.3,0.3-1.03,0.54-1.53,0.04c-1.2-1.2-2.41-2.41-3.62-3.62c-0.48-0.48-1.26,0.26-0.76,0.76c1.21,1.21,2.41,2.41,3.62,3.62
	c0.94,0.94-0.58,2.37-1.48,1.48c-1.21-1.21-2.41-2.41-3.62-3.62c-0.48-0.48-1.26,0.26-0.76,0.76c1.21,1.21,2.42,2.42,3.62,3.62
	c0.94,0.94-0.53,2.41-1.47,1.48l-0.71-0.71c-0.15-1.08-1.13-1.89-2.22-1.83c0.07-1.25-0.99-2.31-2.24-2.24
	c0.07-1.25-0.99-2.31-2.24-2.24c0.03-0.58-0.17-1.18-0.62-1.62c-0.83-0.83-2.17-0.83-3,0l-1.03,1.03c-1.63-2.5-1.93-5.56,0.34-7.83
	c2.08-2.08,5.52-2.25,7.79-0.36l-3.14,3.14c-1.94,1.94,1.07,4.93,3,3l3.16-3.16l2.56,2.57c0.48,0.48,1.26-0.26,0.76-0.76
	c0,0-2.44-2.55-2.99-2.99c-0.21-0.17-0.53-0.15-0.72,0.04l-3.54,3.54c-0.95,0.95-2.43-0.52-1.48-1.48l3.54-3.54
	c1.09-1.09,2.55-1.7,4.1-1.7c1.55,0,3,0.6,4.1,1.7c1.09,1.09,1.7,2.55,1.7,4.1c0,1.36-0.46,2.64-1.32,3.68l-1.36-1.32
	c-0.48-0.48-1.26,0.26-0.76,0.76c0.5,0.47,1.96,1.87,1.96,1.87C29.82,23.7,30.57,24.46,29.82,25.16L29.82,25.16z M29.82,25.16"/>
<circle class="st1" cx="20.8" cy="21.47" r="18"/>
</svg>
