<?xml version="1.0" encoding="utf-8"?>
<!-- Generator: Adobe Illustrator 25.4.1, SVG Export Plug-In . SVG Version: 6.00 Build 0)  -->
<svg version="1.1" id="레이어_1" xmlns="http://www.w3.org/2000/svg" xmlns:xlink="http://www.w3.org/1999/xlink" x="0px"
	 y="0px" viewBox="0 0 39.13 32.74" style="enable-background:new 0 0 39.13 32.74;" xml:space="preserve">
<style type="text/css">
	.st0{stroke:#000000;stroke-width:0.25;stroke-miterlimit:10;}
</style>
<g>
	<path class="st0" d="M31.66,0.85c-2.33,0-4.29,1.66-4.74,3.87H4.47c-0.53,0-0.97,0.43-0.97,0.97v24.49c0,0.53,0.43,0.97,0.97,0.97
		h27.2c2.67,0,4.83-2.17,4.83-4.83V5.69C36.5,3.02,34.33,0.85,31.66,0.85L31.66,0.85z M28.76,5.69c0-1.6,1.3-2.9,2.9-2.9
		c1.6,0,2.9,1.3,2.9,2.9v16.76c-0.81-0.61-1.81-0.97-2.9-0.97c-1.09,0-2.09,0.36-2.9,0.97V5.69z M31.66,29.21H5.43V6.65h21.4v19.66
		c0,0.53,0.43,0.97,0.97,0.97c0.53,0,0.97-0.43,0.97-0.97c0-1.6,1.3-2.9,2.9-2.9c1.6,0,2.9,1.3,2.9,2.9S33.26,29.21,31.66,29.21
		L31.66,29.21z M31.66,29.21"/>
	<path class="st0" d="M23.87,8.59H8.4c-0.53,0-0.97,0.43-0.97,0.97v16.76c0,0.53,0.43,0.97,0.97,0.97h15.47
		c0.53,0,0.97-0.43,0.97-0.97V9.55C24.83,9.02,24.4,8.59,23.87,8.59L23.87,8.59z M19.68,25.35v-1.61c0-0.53-0.43-0.97-0.97-0.97
		c-0.53,0-0.97,0.43-0.97,0.97v1.61H9.36v-7.09h3.22v2.26c0,0.53,0.43,0.97,0.97,0.97h1.93c0.53,0,0.97-0.43,0.97-0.97
		s-0.43-0.97-0.97-0.97h-0.97v-5.48c0-0.53-0.43-0.97-0.97-0.97c-0.53,0-0.97,0.43-0.97,0.97v2.26H9.36v-5.8H22.9v5.8h-1.93v-2.9
		c0-0.53-0.43-0.97-0.97-0.97h-1.93c-0.53,0-0.97,0.43-0.97,0.97c0,0.53,0.43,0.97,0.97,0.97h0.97v1.93h-1.61
		c-0.53,0-0.97,0.43-0.97,0.97c0,0.53,0.43,0.97,0.97,0.97h5.48v7.09H19.68z M19.68,25.35"/>
</g>
</svg>
