<?xml version="1.0" encoding="utf-8"?>
<!-- Generator: Adobe Illustrator 25.4.1, SVG Export Plug-In . SVG Version: 6.00 Build 0)  -->
<svg version="1.1" id="Layer_1" xmlns="http://www.w3.org/2000/svg" xmlns:xlink="http://www.w3.org/1999/xlink" x="0px" y="0px"
	 viewBox="0 0 196.96 281.84" style="enable-background:new 0 0 196.96 281.84;" xml:space="preserve">
<style type="text/css">
	.st0{fill:#12100B;}
</style>
<g>
	<g>
		<path d="M35.55,222.1c-1.58-3.16-3.82-5.05-6.85-5.78c-1.28-0.31-2.67-0.52-4.08-0.03c-1,0.35-1.44,0.94-1.47,1.98l-0.04,1.51
			c-0.14,5.41-0.28,11.01-0.51,16.5c-0.18,4.38-0.37,9.57-0.4,14.85c0,0.12-0.02,0.24-0.04,0.36l-0.03,0.23
			c0,0.03-0.01,0.06-0.01,0.09v4.47c0,0.39,0.31,0.72,0.7,0.74l0.21,0.01c0.12,0,0.24,0.01,0.36,0.02c0.64,0.07,1.26,0.11,1.86,0.11
			c1.39,0,2.68-0.2,3.88-0.6c2.99-0.99,5.16-3.09,6.65-6.42c1.54-3.47,1.94-7.12,2.11-9.92c0.27-4.35,0.17-7.9-0.33-11.18
			C37.13,226.15,36.51,224.01,35.55,222.1z M33.49,239.14c-0.19,3.25-0.64,5.87-1.38,8.25c-0.49,1.56-1.19,3.34-2.63,4.72
			c-0.86,0.82-1.84,1.25-3.04,1.3c0.17-4.69,0.33-9.37,0.49-14.06l0.08-2.26c0.01-0.03,0.01-0.07,0.01-0.11l0.12-3.4
			c0.15-4.33,0.31-8.65,0.45-13.01c1.42,0.35,2.55,1.24,3.46,2.7c0.92,1.48,1.53,3.21,1.97,5.63
			C33.57,231.93,33.72,235.28,33.49,239.14z"/>
		<path d="M122.69,222.55c-0.29-2.82-1.74-4.99-4.19-6.27c-2.3-1.2-4.72-1.13-6.79-0.9c-0.89,0.1-1.55,0.7-1.81,1.65
			c-0.19,0.68-0.21,1.34-0.23,2.05c-0.13,4.84-0.26,9.68-0.39,14.51l-0.13,4.84v0c-0.16,7-0.23,13.43-0.2,19.76
			c-0.01,0.23-0.04,0.61,0.23,0.98c0.4,0.58,1.31,0.97,2.13,0.97c0.21,0,0.42-0.03,0.61-0.08c0.56-0.16,1.23-0.64,1.26-1.99
			l0.08-3.89c0.09-4.41,0.18-8.81,0.28-13.22c0.02-0.71,0.1-1.41,0.18-2.12l0.07-0.62c1.29,0,2.15,0.58,2.68,1.8
			c0.41,0.96,0.64,2.05,0.73,3.54c0.17,2.75,0.31,5.51,0.45,8.27l0.15,2.95c0.03,0.5,0.08,1.54,1.16,1.83
			c0.84,0.22,1.93,0.38,2.89-0.39c0.66-0.53,0.56-1.31,0.49-1.8c-0.27-2.18-0.33-4.43-0.39-6.61c-0.03-1.06-0.05-2.11-0.1-3.16
			c-0.09-1.86-0.31-3.5-0.69-5c-0.38-1.51-1.15-2.87-2.52-4.4c1.1-0.88,1.98-2.01,2.62-3.37
			C122.58,229.08,123.04,226.03,122.69,222.55z M113.89,233c-0.01,0-0.02,0-0.03,0c0-0.02,0-0.03,0-0.05c0-1.7,0.08-3.39,0.15-5.08
			l0.06-1.23c0.1-2.01,0.15-4.07,0.15-6.33c0-0.34,0.06-0.59,0.17-0.69c0.11-0.1,0.39-0.14,0.75-0.1c1.11,0.11,1.9,0.73,2.48,1.93
			c0.61,1.27,0.77,2.68,0.5,4.43c-0.36,2.41-0.96,4.13-1.92,5.57C115.49,232.51,114.8,232.97,113.89,233z"/>
		<path d="M180,234.27c-0.21-3.64-0.48-7.28-0.77-10.91c-0.12-1.53-0.38-3.52-1.32-5.35c-0.87-1.69-2.11-2.58-3.68-2.67
			c-2.59-0.13-4.88,0.74-6.83,2.58c-3.85,3.64-5.17,10.28-3.07,15.45c1.51,3.71,4.78,5.14,8.95,3.89c0.6-0.18,1.11-0.52,1.49-0.99
			c0.36-0.44,0.71-1.2,0.37-2.32c-0.29-0.95-1.22-0.93-1.57-0.92h-0.18c-0.78-0.05-1.49,0.1-2.19,0.24l-0.63,0.12
			c-0.55,0.1-1.02-0.03-1.43-0.41c-0.44-0.4-0.71-0.94-0.9-1.76c-0.7-3.07-0.12-6.05,1.77-9.11c0.57-0.93,1.22-1.54,1.97-1.88
			c0.72-0.32,1.25-0.42,1.52-0.28c0.26,0.13,0.47,0.57,0.63,1.27c0.24,1.12,0.38,2.3,0.5,3.44c0.06,0.55,0.13,1.1,0.2,1.65
			c0.55,4.04,0.79,8.15,0.73,12.21c0,0,0,0.01,0,0.01l0,0.43c-0.02,3.42-0.04,6.95-0.53,10.37l-0.09,0.68
			c-0.17,1.23-0.32,2.4-0.77,3.48c-0.27,0.65-0.55,1.03-0.81,1.11c-0.26,0.09-0.71-0.08-1.31-0.45l-0.17-0.11
			c-0.41-0.27-0.87-0.57-1.43-0.73c-1.02-0.3-2.09,0-2.59,0.72c-0.5,0.72-0.4,1.81,0.23,2.59c1.16,1.42,2.63,2.29,4.27,2.52
			c0.25,0.04,0.5,0.05,0.75,0.05c1.68,0,3.13-0.82,4.22-2.39c1.3-1.87,1.7-4.05,1.91-5.93c0.12-1,0.21-2.01,0.3-3.02
			c0.09-1.06,0.19-2.12,0.32-3.18C180.29,240.91,180.16,237.14,180,234.27z"/>
		<path d="M65.88,233.21c-0.49-0.68-0.98-1.36-1.45-2.06c-1.2-1.8-2.44-3.99-2.51-6.57c-0.04-1.29,0-2.66,0.55-3.94
			c0.39-0.88,0.92-1.2,1.78-1.19c0.6,0.03,1.05,0.29,1.42,0.83c0.12,0.17,0.22,0.34,0.32,0.52c0.21,0.37,0.43,0.75,0.76,1.09
			c0.65,0.68,1.53,0.89,2.51,0.57c1.15-0.38,1.22-1.53,1.24-1.91c0.05-0.99-0.23-1.89-0.85-2.68c-1.06-1.35-2.56-2.25-4.6-2.74
			c-2.26-0.54-4.2,0.2-5.61,2.15c-1.26,1.74-1.94,3.79-2.01,6.08c-0.07,2.03,0.42,4.14,1.49,6.45c0.88,1.9,2.01,3.66,3.11,5.35
			l0.84,1.32c1.05,1.66,1.88,3.08,2.52,4.6c0.97,2.32,1.2,4.81,1.29,6.94l0.01,0.46c0,0.32,0.01,0.64-0.01,0.96
			c-0.08,1.42-0.28,2.92-1.12,4.22c-0.43,0.67-0.96,1.04-1.66,1.17c-0.31,0.05-0.47,0-0.66-0.22c-0.37-0.44-0.58-0.99-0.69-1.83
			c-0.05-0.36-0.07-0.72-0.09-1.08c-0.04-0.65-0.08-1.33-0.27-2.01c-0.31-1.15-1.17-1.83-2.23-1.68c-1.16,0.15-2.18,1.2-2.2,2.25
			c-0.03,2.26,0.41,4.2,1.34,5.93c0.83,1.53,2.11,2.53,3.6,2.82c0.3,0.06,0.59,0.09,0.89,0.09c1.19,0,2.38-0.45,3.43-1.31
			c2.5-2.05,3.91-4.82,4.21-8.25c0.36-4.25-0.57-8.44-2.78-12.46C67.68,235.7,66.76,234.43,65.88,233.21z"/>
		<path d="M81.91,233.03c-0.45-0.63-0.91-1.25-1.34-1.89c-2-2.95-2.78-5.58-2.46-8.28c0.12-0.97,0.24-1.77,0.63-2.47
			c0.39-0.71,0.92-1,1.69-0.93c0.6,0.05,1.04,0.31,1.37,0.82l0.26,0.42c0.21,0.35,0.43,0.7,0.67,1.02c0.63,0.82,1.77,1.13,2.72,0.74
			c1.18-0.48,1.19-1.66,1.19-2.11c0-0.91-0.29-1.74-0.86-2.47c-1.05-1.34-2.54-2.23-4.55-2.73c-2.31-0.58-4.28,0.19-5.71,2.2
			c-1.23,1.73-1.89,3.73-1.97,5.97c-0.07,2.05,0.42,4.18,1.49,6.51c0.87,1.88,1.98,3.61,3.07,5.29l0.76,1.19
			c0.94,1.49,1.92,3.08,2.64,4.79c0.97,2.31,1.2,4.81,1.29,6.94l0,0.44c0.01,0.31,0.01,0.62-0.01,0.93
			c-0.08,1.44-0.27,2.95-1.13,4.27c-0.44,0.68-0.98,1.05-1.7,1.17c-0.26,0.04-0.41,0-0.59-0.21c-0.38-0.44-0.6-1-0.71-1.86
			c-0.05-0.35-0.07-0.71-0.09-1.07c-0.04-0.64-0.08-1.3-0.26-1.97c-0.31-1.16-1.14-1.83-2.16-1.73c-1.18,0.11-2.26,1.19-2.27,2.27
			c-0.03,2.29,0.42,4.25,1.38,5.98c0.82,1.49,2.09,2.47,3.57,2.75c0.29,0.06,0.59,0.09,0.89,0.09c1.17,0,2.35-0.44,3.39-1.28
			c2.52-2.05,3.95-4.84,4.24-8.29c0.37-4.39-0.63-8.68-2.96-12.76C83.66,235.44,82.77,234.21,81.91,233.03z"/>
		<path d="M155.66,232.02c2.51-2.07,4.16-4.42,5.04-7.16c1.22-3.82-0.29-7.04-3.94-8.41c-1.78-0.67-3.8-0.9-6.18-0.72
			c-0.49,0.04-1.07,0.11-1.63,0.36c-1.03,0.46-1.41,1.42-0.96,2.46c0.64,1.49,1.8,2.09,3.37,1.75c1.43-0.31,2.51-0.3,3.51,0.03
			c1.11,0.36,1.57,1.03,1.5,2.18c-0.06,0.86-0.34,1.71-0.91,2.68c-0.88,1.51-2.09,2.74-3.37,4.04l-0.49,0.5
			c-0.49,0.5-1.01,1.02-1.41,1.67c-0.56,0.9-0.45,1.66,0.35,2.39c0.44,0.41,0.93,0.69,1.41,0.95l0.3,0.17
			c1.23,0.71,2.6,1.61,3.52,2.91c2.83,3.99,3.32,8.41,1.47,13.13c-0.51,1.31-1.29,2.27-2.31,2.84c-1.5,0.83-2.59,0.86-3.63,0.06
			c-0.35-0.26-0.76-0.45-1.23-0.55c-0.8-0.16-1.58,0.06-2.08,0.6c-0.5,0.54-0.68,1.33-0.46,2.12c0.29,1.06,1.06,1.79,2.28,2.19
			c1.02,0.33,2.01,0.5,2.97,0.5c2.06,0,3.97-0.75,5.64-2.23c2.71-2.4,4.23-5.73,4.52-9.88c0.29-4.11-0.97-7.92-3.74-11.32
			C158.23,234.09,157.06,233.01,155.66,232.02z"/>
		<path d="M54.16,254.54c-0.74-0.24-1.45-0.19-2.18-0.11c-1.89,0.21-3.62,0.29-5.38,0.22c0.06-4.12,0.1-8.25,0.13-12.45
			c1.55-0.21,3.11-0.43,4.66-0.69c1.2-0.2,2.04-0.78,2.5-1.73c0.28-0.59,0.21-1.06,0.09-1.35c-0.12-0.29-0.38-0.7-1-0.94
			c-0.64-0.25-1.26-0.21-1.79-0.14c-1.5,0.21-3,0.44-4.57,0.68c0.01-1.96,0.01-3.92,0.01-5.88l0-2.09c0-0.21-0.09-0.4-0.23-0.54
			l0-1.55c0-1.93,0.01-3.86-0.01-5.91c1.77,0.03,3.54,0.02,5.3,0.01l0.26,0c1.01,0,1.84-0.32,2.45-0.93c1.05-1.04,0.5-1.91,0.3-2.16
			c-0.44-0.55-1.17-1.32-2.36-1.26c-1.74,0.02-3.48,0.02-5.23,0.01l-2.38,0c-0.88,0-1.61,0.28-2.13,0.8
			c-0.51,0.52-0.77,1.25-0.76,2.12c0.03,2.46,0.07,4.93,0.11,7.39l0.45,28.48c0.02,1.3,0.29,1.61,1.6,1.84
			c1.37,0.24,2.78,0.36,4.31,0.36c1.09,0,2.23-0.06,3.47-0.18c0.85-0.08,1.84-0.2,2.77-0.6c0.29-0.12,0.97-0.4,1.06-1.23
			C55.69,255.77,55.08,254.85,54.16,254.54z"/>
		<path d="M103.66,254.55c-0.74-0.24-1.46-0.19-2.19-0.11c-1.91,0.21-3.64,0.28-5.39,0.22c0.06-4.13,0.1-8.26,0.13-12.44
			c1.55-0.21,3.1-0.44,4.64-0.69c1.12-0.18,1.94-0.71,2.44-1.57c0.37-0.65,0.3-1.17,0.18-1.49c-0.13-0.33-0.43-0.77-1.15-1.01
			c-0.62-0.21-1.23-0.16-1.7-0.09c-1.49,0.21-2.99,0.44-4.52,0.68c0.01-1.96,0.01-3.91,0-5.87v-2.09c0-0.21-0.09-0.4-0.24-0.54
			l0-1.63c0-1.92,0-3.84-0.01-5.84c1.85,0.02,3.7,0.01,5.55,0.01c1.01-0.01,1.84-0.31,2.45-0.92c1.05-1.03,0.51-1.91,0.32-2.15
			c-0.43-0.55-1.07-1.27-2.36-1.27c-1.72,0.02-3.44,0.01-5.16,0.01l-2.45,0c-0.88,0-1.62,0.28-2.14,0.8
			c-0.51,0.52-0.77,1.25-0.76,2.11c0.04,2.73,0.08,5.46,0.13,8.19l0.44,27.68c0.02,1.32,0.29,1.63,1.58,1.85
			c1.37,0.24,2.78,0.36,4.32,0.36c1.09,0,2.23-0.06,3.46-0.18c0.85-0.08,1.84-0.2,2.78-0.6c0.31-0.13,0.97-0.41,1.06-1.21
			C105.19,255.78,104.59,254.86,103.66,254.55z"/>
		<path d="M137.33,216.6c-0.57-0.34-1.24-0.54-1.97-0.58c-2.04-0.11-4.05-0.12-6.11-0.11c-0.84,0-1.67,0-2.5-0.01
			c-0.01,0-0.02,0-0.03,0c-0.58,0-1.17,0.13-1.76,0.37c-1.02,0.42-1.29,1.61-1.2,2.59c0.1,1.13,1.18,1.32,1.64,1.39
			c0.93,0.16,1.83,0.12,2.71,0.08l0.53-0.02c0,0.01,0,0.01,0,0.02l0.28,9.73c0.11,3.66,0.23,7.31,0.35,10.97l0.11,3.34
			c0.09,2.67,0.17,5.34,0.27,8.01c0.05,1.33,0.53,1.87,1.85,2.06c0.13,0.02,0.26,0.03,0.39,0.03c0.53,0,1.01-0.17,1.36-0.49
			c0.43-0.4,0.65-0.99,0.61-1.68c-0.03-0.49-0.05-0.98-0.06-1.47l-0.42-14.48c0-0.03,0-0.06-0.01-0.09l-0.3-9.71
			c-0.06-2.11-0.13-4.23-0.19-6.4c1.16,0.02,2.33,0.01,3.5,0c0.96-0.01,1.72-0.55,1.94-1.38
			C138.53,218.01,138.09,217.05,137.33,216.6z"/>
	</g>
	<g>
		<g>
			<path class="st0" d="M100.1,73.97L100.1,73.97c-3.83,2.56-9.69-0.12-9.75-0.15c-0.49-0.24-1.05-0.27-1.57-0.08
				c-0.52,0.18-0.93,0.55-1.17,1.04c-0.49,1.01-0.06,2.22,0.96,2.71c0.14,0.07,3.51,1.66,7.43,1.66c2.44,0,4.59-0.61,6.38-1.8
				c0.94-0.63,1.19-1.89,0.55-2.82C102.31,73.59,101.04,73.35,100.1,73.97z"/>
			<path class="st0" d="M120.25,77.49c0.15,0.07,3.52,1.66,7.43,1.66c2.44,0,4.59-0.61,6.38-1.8c0.45-0.3,0.76-0.76,0.87-1.29
				c0.1-0.53-0.01-1.07-0.31-1.52c-0.63-0.93-1.91-1.18-2.84-0.55c-3.84,2.56-9.7-0.12-9.75-0.15c-0.49-0.23-1.05-0.27-1.57-0.09
				c-0.51,0.18-0.93,0.55-1.17,1.04C118.81,75.78,119.23,77,120.25,77.49z"/>
			<path class="st0" d="M112.87,87.74c1.13,0,2.29-0.3,3.34-0.87h0c2.35-1.27,3.81-3.6,3.81-6.09c0-3.84-3.28-6.96-7.31-6.96
				c-1.13,0-2.05,0.91-2.05,2.03c0,1.12,0.92,2.03,2.05,2.03c1.77,0,3.21,1.3,3.21,2.9c0,0.99-0.65,1.98-1.67,2.52
				c-0.43,0.23-1.53,0.7-2.6,0.02c-0.95-0.61-2.22-0.34-2.83,0.6c-0.62,0.94-0.34,2.2,0.6,2.81
				C110.45,87.39,111.64,87.74,112.87,87.74z"/>
			<path class="st0" d="M160.37,154.54l-0.01-1.9c0-6-2.18-8.99-4.14-10.47l1.57-10.7c0.27-1.85-0.23-3.61-1.41-4.96
				c-1.18-1.35-2.87-2.09-4.75-2.09h-15.27v-14.9c0-0.12-0.01-0.23-0.02-0.23c0.08-1.89-0.8-3.67-2.33-4.72l-1.17-0.91
				c1.56-1.98,2.9-4.25,4-6.75c2.21-5.03,3.42-10.54,3.42-15.5l0-18.17c0-0.68,0.01-1.41,0.01-2.23c0.02-1.72,0.03-3.46-0.02-5.01
				l-0.03-0.75c-0.05-1.14-0.14-2.05-0.27-2.79c-3.87-21.71-23.3-36.3-48.37-36.3c-27.4,0-49.69,21.1-49.69,47.02
				c0,8.2,1.96,16.09,5.68,22.83c-0.11,0.63-0.16,1.25-0.16,1.85c0,5.33,3.69,9.86,8.86,10.97l0.05,3.19c0.02,1.1,0.94,2,2.05,2
				h7.67c2.83,4.04,5.88,7.08,11.32,8.75c4.54,1.39,4.93,2.35,4.96,5.47c-19.59,6.63-32.72,25.33-32.72,46.67v9.33
				c0,1.12,0.92,2.03,2.05,2.03c1.07,0,1.96-0.84,2.04-1.9l0.01-9.46c0-19.56,12-36.73,29.9-42.81c0.25,0.11,0.51,0.17,0.77,0.17
				c2.59,0,5.43-0.01,8.35-0.02l0.54,0c6.08-0.02,12.37-0.04,17.74,0.03c1.68,0.6,3.35,1.31,4.98,2.14h-1.92
				c-1.88,0-3.57,0.74-4.76,2.08c-1.19,1.34-1.7,3.1-1.45,4.95l6.53,48.35c0.49,3.58,3.85,6.49,7.49,6.49h21.3
				c3.64,0,7.02-2.9,7.54-6.47l1.26-8.6h0.58c2.06,0,3.75-0.63,5-1.88C160.42,166.51,160.39,161.22,160.37,154.54z M109.54,118.21
				c-1.04-0.01-2.12-0.02-3.21-0.02c-4.3-0.02-8.92,0-13.45,0.01l-6.48,0.02c0-0.11,0-0.21-0.01-0.32
				c-0.13-4.41-1.37-7.01-7.83-8.99c-4.32-1.33-6.64-3.64-8.98-6.93c-0.33-0.46-0.66-0.94-0.98-1.43c-0.29-0.49-1.56-3.67-1.92-5.1
				c-0.02-0.08-0.04-0.15-0.05-0.21c0.12-0.61-0.05-1.24-0.46-1.71c-0.2-0.23-0.45-0.4-0.76-0.53c-0.71-0.29-1.51-0.18-1.97,0.23
				l-0.15,0.1c-0.34,0.29-0.72,0.56-1.13,0.79c-0.82,0.46-1.71,0.76-2.65,0.87c-0.55,0.07-1.12,0.07-1.66,0.01
				c-0.98-0.11-1.91-0.43-2.77-0.93c-1.39-0.82-2.48-2.1-3.06-3.6c-0.32-0.84-0.49-1.71-0.49-2.58l0.02-0.29
				c0.03-0.67,0.14-1.31,0.33-1.91c0.96-2.97,3.68-4.97,6.78-4.97c1.34,0,2.66,0.39,3.81,1.12c0.48,0.3,1.07,0.4,1.62,0.26
				c0.55-0.14,1.02-0.5,1.29-1l12.99-23.64h57.8v23.98c0,4.42-1.09,9.35-3.08,13.88c-0.96,2.18-2.12,4.15-3.46,5.85l-11.66-9.08
				c-2.53-1.72-6.01-1.08-7.75,1.43c-1.72,2.48-1.09,5.91,1.36,7.62l8.65,6.83c-0.05,0.02-0.11,0.04-0.16,0.06
				c-0.98,0.34-1.94,0.58-2.89,0.82c-2.12,0.54-4.12,1.04-5.62,2.53C110.16,112.73,109.69,116.16,109.54,118.21z M128.53,109.33
				l-14.57-11.5c-0.32-0.22-0.54-0.55-0.61-0.94c-0.07-0.38,0.01-0.77,0.23-1.09c0.44-0.63,1.46-0.76,1.98-0.43l15.94,12.42
				l0.11,0.08c0.43,0.29,0.66,0.78,0.62,1.31c-0.01,0.09-0.01,0.17,0,0.27l0.02,14.97h-2.95v-13.51
				C129.3,110.3,129.02,109.72,128.53,109.33z M113.59,118.9c0.15-2.38,0.65-4.41,0.86-4.68c0.7-0.69,2.04-1.03,3.74-1.46
				c0.97-0.24,2.06-0.52,3.21-0.92c0.77-0.27,1.58-0.6,2.47-1.01l1.35,1.06v12.53h-1.37C120.62,122.14,117.17,120.29,113.59,118.9z
				 M146.65,179.25c-0.23,1.59-1.86,2.99-3.48,2.99h-21.3c-1.61,0-3.22-1.39-3.43-2.97l-1.34-9.91h6.94c1.13,0,2.05-0.91,2.05-2.03
				c0-1.12-0.92-2.03-2.05-2.03h-7.48l-0.47-3.5h7.96c1.13,0,2.05-0.91,2.05-2.03c0-1.12-0.92-2.03-2.05-2.03h-8.51l-0.47-3.5h9.77
				c1.13,0,2.05-0.91,2.05-2.03c0-1.12-0.92-2.03-2.05-2.03h-10.32l-0.47-3.5h10.79c1.13,0,2.05-0.91,2.05-2.03
				c0-1.12-0.92-2.03-2.05-2.03h-11.34l-0.47-3.5h11.81c0.59,0,1.13-0.25,1.54-0.71c0.34-0.38,0.51-0.84,0.51-1.32
				c0-0.48-0.18-0.94-0.51-1.32c-0.4-0.46-0.95-0.71-1.54-0.71h-12.36l-0.56-4.12c-0.09-0.67,0.08-1.29,0.48-1.74
				c0.4-0.45,0.99-0.7,1.67-0.7h37.57c0.68,0,1.27,0.24,1.65,0.69c0.39,0.44,0.55,1.05,0.45,1.72l-1.43,9.77h-6.02
				c-2.99,0-5.43,2.4-5.43,5.34c0,1.22,0.41,2.38,1.17,3.32c-0.32,0.4-0.59,0.86-0.78,1.35c-0.26,0.64-0.39,1.3-0.39,1.96
				c0,1.22,0.41,2.37,1.17,3.32c-0.31,0.38-0.56,0.8-0.75,1.26c-0.28,0.66-0.42,1.35-0.42,2.05c0,1.18,0.33,2.22,0.99,3.08
				c0.36,0.47,0.8,0.87,1.34,1.19l0.01,0.23c-0.34,0.68-0.52,1.4-0.52,2.13c0,0.79,0.21,1.58,0.61,2.34
				c0.9,1.68,2.64,2.81,4.55,2.98L146.65,179.25z M154.65,166.49c-0.48,0.48-1.13,0.69-2.1,0.69h-4.22c-0.79,0-1.56-0.64-1.56-1.28
				c0-0.49,0.73-1.17,1.51-1.26h3.53c0.29,0,0.58-0.07,0.86-0.2c0.72-0.33,1.19-1.05,1.19-1.84c0-0.58-0.25-1.12-0.7-1.51
				c-0.38-0.34-0.86-0.52-1.35-0.52l-2.93,0.01c-0.14-0.03-0.28-0.04-0.49-0.03c-0.81,0-1.92-0.01-2.7-0.29
				c-0.58-0.21-0.73-0.41-0.73-0.99c0-0.71,0.6-1.28,1.33-1.28h7.04l0.13-0.01c1.07-0.06,1.92-0.95,1.92-2.02
				c0-0.88-0.58-1.65-1.44-1.92c-0.15-0.05-0.36-0.11-0.61-0.11h-7.04c-0.73,0-1.33-0.58-1.33-1.28c0-0.71,0.6-1.28,1.45-1.31h6.92
				c0.61,0,1.18-0.28,1.58-0.77c0.31-0.38,0.47-0.82,0.47-1.26c0-0.28-0.06-0.55-0.17-0.81c-0.33-0.74-1.06-1.22-1.88-1.22l-7.2,0
				c-0.67-0.08-1.17-0.62-1.17-1.27c0-0.71,0.6-1.28,1.33-1.28l6.05-0.01c0.2,0.04,1.22,0.29,2.18,1.47
				c1.16,1.42,1.75,3.59,1.75,6.45l0.01,1.92C156.29,159.84,156.31,164.84,154.65,166.49z"/>
		</g>
	</g>
</g>
</svg>
