<?xml version="1.0" encoding="utf-8"?>
<!-- Generator: Adobe Illustrator 25.4.1, SVG Export Plug-In . SVG Version: 6.00 Build 0)  -->
<svg version="1.1" id="레이어_1" xmlns="http://www.w3.org/2000/svg" xmlns:xlink="http://www.w3.org/1999/xlink" x="0px"
	 y="0px" viewBox="0 0 62.74 68.35" style="enable-background:new 0 0 62.74 68.35;" xml:space="preserve">
<g>
	<path d="M40.63,23.38l3.58-3.58l-3.41-3.41l-3.58,3.58c-1.26-0.84-2.69-1.44-4.23-1.76v-5.06h-4.82v5.06
		c-1.54,0.31-2.97,0.92-4.23,1.76l-3.58-3.58l-3.41,3.41l3.58,3.58c-0.84,1.26-1.44,2.69-1.76,4.23h-5.06v4.82h5.06
		c0.31,1.54,0.92,2.97,1.76,4.23l-3.58,3.58l3.41,3.41l3.58-3.58c1.26,0.84,2.69,1.44,4.23,1.76v5.06h4.82v-5.06
		c1.54-0.31,2.97-0.92,4.23-1.76l3.58,3.58l3.41-3.41l-3.58-3.58c0.84-1.26,1.44-2.69,1.76-4.23h5.06v-4.82h-5.06
		C42.07,26.07,41.47,24.64,40.63,23.38L40.63,23.38z M30.58,37.67c-3.98,0-7.53-3.66-7.53-7.64s3.55-7.64,7.53-7.64
		s7.66,3.64,7.66,7.63S34.57,37.67,30.58,37.67L30.58,37.67z M30.58,37.25"/>
	<path d="M30.58,4C15.89,4,4.08,15.42,4.08,30.02c0,8.6,4.15,16.62,11.13,21.59c2.27,1.62,3.32,3.39,3.32,5.57v1.26
		c0,3.98,3.24,7.23,7.23,7.23h9.64c3.98,0,7.23-3.24,7.23-7.23v-1.26c0-2.19,1.06-3.96,3.32-5.57c6.98-4.97,11.13-12.99,11.13-21.59
		C57.08,15.45,45.3,4,30.58,4L30.58,4z M43.29,47.94c-3.55,2.53-4.88,5.54-4.88,9.31v1.26c0,1.33-1.69,2.97-3.02,2.97h-9.64
		c-1.33,0-2.93-1.73-2.93-3.06v-1.26c0-3.77-1.52-6.52-5.06-9.05c-5.71-4.07-9.6-11.1-9.6-18.09c0-11.89,10.26-22.1,22.42-22.1
		s22.58,10.21,22.58,22.1C53.17,37.01,49,43.88,43.29,47.94L43.29,47.94z M43.52,48.11"/>
	<path d="M32.99,30.02c0,1.33-1.08,2.41-2.41,2.41c-1.33,0-2.41-1.08-2.41-2.41s1.08-2.41,2.41-2.41
		C31.91,27.61,32.99,28.69,32.99,30.02L32.99,30.02z M32.99,30.02"/>
</g>
</svg>
