<?xml version="1.0" encoding="utf-8"?>
<!-- Generator: Adobe Illustrator 25.4.1, SVG Export Plug-In . SVG Version: 6.00 Build 0)  -->
<svg version="1.1" id="Capa_1" xmlns="http://www.w3.org/2000/svg" xmlns:xlink="http://www.w3.org/1999/xlink" x="0px" y="0px"
	 viewBox="383 572 80 81" style="enable-background:new 383 572 80 81;" xml:space="preserve">
<style type="text/css">
	.st0{stroke:#000000;stroke-miterlimit:10;}
</style>
<g>
	<g>
		<path class="st0" d="M429.26,642.84H418.5c-0.9,0-1.63-0.73-1.63-1.63v-21.12c0-0.9,0.73-1.63,1.63-1.63h10.76
			c0.9,0,1.63,0.73,1.63,1.63v21.12C430.89,642.11,430.16,642.84,429.26,642.84z M420.13,639.58h7.5v-17.85h-7.5V639.58z"/>
		<path class="st0" d="M450.62,642.84h-10.84c-0.9,0-1.63-0.73-1.63-1.63v-33.92c0-0.9,0.73-1.63,1.63-1.63h10.84
			c0.9,0,1.63,0.73,1.63,1.63v33.92C452.25,642.11,451.52,642.84,450.62,642.84z M441.41,639.58h7.58v-30.65h-7.58V639.58z"/>
		<path class="st0" d="M407.98,642.84h-10.84c-0.9,0-1.63-0.73-1.63-1.63V628c0-0.9,0.73-1.63,1.63-1.63h10.84
			c0.9,0,1.63,0.73,1.63,1.63v13.21C409.61,642.11,408.88,642.84,407.98,642.84z M398.77,639.58h7.58v-9.95h-7.58V639.58z"/>
	</g>
	<g>
		<path class="st0" d="M396.57,609.25c-0.48,0.02-0.93-0.19-1.22-0.57c-0.6-0.66-0.56-1.67,0.08-2.28l15.16-14.51
			c0.59-0.55,1.49-0.58,2.12-0.08l14.76,11.58l22.09-17.28c0.72-0.54,1.74-0.39,2.28,0.33l0,0c0.56,0.7,0.45,1.72-0.24,2.28
			l-23.15,18.02c-0.6,0.48-1.44,0.48-2.04,0l-14.59-11.5l-14.1,13.53C397.41,609.07,397,609.24,396.57,609.25z"/>
		<path class="st0" d="M450.13,602.32h-0.08c-0.88-0.08-1.55-0.83-1.55-1.71l0.98-12.15l-13.21-0.9c-0.9-0.07-1.58-0.85-1.51-1.75
			s0.85-1.58,1.75-1.51l14.84,1.06c0.42,0.02,0.81,0.23,1.06,0.57c0.32,0.29,0.47,0.72,0.41,1.14l-1.06,13.78
			C451.68,601.69,450.97,602.32,450.13,602.32z"/>
	</g>
</g>
</svg>
