<?xml version="1.0" encoding="iso-8859-1"?>
<!-- Generator: Adobe Illustrator 25.4.1, SVG Export Plug-In . SVG Version: 6.00 Build 0)  -->
<svg version="1.1" id="&#xB808;&#xC774;&#xC5B4;_1" xmlns="http://www.w3.org/2000/svg" xmlns:xlink="http://www.w3.org/1999/xlink"
	 x="0px" y="0px" viewBox="0 0 31.264 31.142" style="enable-background:new 0 0 31.264 31.142;" xml:space="preserve">
<g>
	<path style="stroke:#000000;stroke-width:0.5;stroke-miterlimit:10;" d="M15.655,1.5c-8.008,0-14.5,6.492-14.5,14.5
		s6.492,14.5,14.5,14.5s14.5-6.492,14.5-14.5C30.146,7.996,23.659,1.509,15.655,1.5L15.655,1.5z M25.421,6.645
		c-0.865,0.392-1.753,0.731-2.659,1.015c-0.696-1.769-1.796-3.351-3.212-4.62C21.785,3.717,23.808,4.958,25.421,6.645L25.421,6.645z
		 M15.655,23.733c-4.271,0-7.733-3.462-7.733-7.733s3.462-7.733,7.733-7.733s7.733,3.462,7.733,7.733
		C23.383,20.269,19.924,23.728,15.655,23.733L15.655,23.733z M20.981,9.137c0.412-0.091,0.822-0.192,1.229-0.304
		c0.27,0.757,0.491,1.531,0.662,2.316C22.352,10.382,21.714,9.703,20.981,9.137L20.981,9.137z M19.842,8.379
		c-1.139-0.626-2.405-0.986-3.704-1.055V2.496c2.338,0.254,4.399,2.331,5.719,5.43C21.193,8.105,20.521,8.256,19.842,8.379
		L19.842,8.379z M15.172,2.496v4.829c-1.298,0.068-2.564,0.428-3.704,1.054c-0.679-0.121-1.351-0.272-2.015-0.453
		C10.773,4.827,12.834,2.749,15.172,2.496L15.172,2.496z M10.329,9.137c-0.733,0.566-1.371,1.245-1.891,2.012
		C8.609,10.363,8.83,9.59,9.1,8.833C9.507,8.944,9.916,9.046,10.329,9.137L10.329,9.137z M6.962,15.517H2.134
		c0.102-2.973,1.186-5.828,3.081-8.12C6.18,7.849,7.174,8.238,8.191,8.561C7.409,10.799,6.994,13.147,6.962,15.517L6.962,15.517z
		 M6.962,16.483c0.031,2.369,0.446,4.717,1.228,6.954c-1.016,0.324-2.01,0.713-2.975,1.166c-1.895-2.293-2.979-5.148-3.081-8.12
		H6.962z M8.438,20.852c0.52,0.766,1.158,1.445,1.891,2.011c-0.412,0.091-0.822,0.192-1.229,0.304
		C8.83,22.41,8.609,21.637,8.438,20.852L8.438,20.852z M11.468,23.622c1.139,0.625,2.405,0.986,3.704,1.054v4.829
		c-2.338-0.254-4.399-2.331-5.719-5.43C10.117,23.895,10.789,23.744,11.468,23.622L11.468,23.622z M16.138,29.504v-4.829
		c1.298-0.068,2.564-0.428,3.704-1.054c0.679,0.122,1.351,0.272,2.015,0.453C20.537,27.173,18.476,29.251,16.138,29.504
		L16.138,29.504z M20.981,22.863c0.733-0.566,1.371-1.245,1.891-2.012c-0.172,0.785-0.393,1.559-0.662,2.316
		C21.803,23.056,21.394,22.954,20.981,22.863L20.981,22.863z M24.348,16.483h4.828c-0.102,2.973-1.186,5.828-3.081,8.12
		c-0.965-0.453-1.959-0.842-2.975-1.165C23.901,21.201,24.316,18.853,24.348,16.483L24.348,16.483z M24.348,15.517
		c-0.031-2.369-0.446-4.717-1.228-6.954c1.016-0.324,2.01-0.713,2.975-1.166c1.895,2.293,2.979,5.148,3.081,8.12H24.348z
		 M11.759,3.041c-1.417,1.268-2.518,2.85-3.215,4.62C7.64,7.376,6.753,7.037,5.889,6.645C7.502,4.958,9.525,3.717,11.759,3.041
		L11.759,3.041z M5.889,25.355c0.864-0.391,1.751-0.73,2.656-1.015c0.696,1.769,1.797,3.352,3.215,4.62
		C9.525,28.283,7.502,27.042,5.889,25.355L5.889,25.355z M19.551,28.959c1.417-1.268,2.518-2.85,3.215-4.62
		c0.906,0.284,1.793,0.623,2.658,1.015C23.81,27.042,21.786,28.284,19.551,28.959L19.551,28.959z M19.551,28.959"/>
	<path style="stroke:#000000;stroke-width:0.5;stroke-miterlimit:10;" d="M13.097,15.991c0.163,0,0.324-0.037,0.472-0.106
		c0.341-0.158,0.577-0.479,0.625-0.852h3.394c0.801,0,1.45-0.649,1.45-1.45v-0.967c0-0.801-0.649-1.45-1.45-1.45h-3.394
		c-0.054-0.398-0.32-0.736-0.695-0.881c-0.375-0.146-0.799-0.076-1.107,0.181l-2.145,1.788c-0.249,0.212-0.392,0.522-0.391,0.849
		c0.001,0.327,0.145,0.637,0.395,0.848l2.141,1.784C12.59,15.9,12.84,15.991,13.097,15.991L13.097,15.991z M10.822,13.1
		c0-0.041,0.017-0.081,0.048-0.107l2.14-1.783c0.024-0.021,0.055-0.033,0.087-0.034c0.021,0,0.042,0.005,0.061,0.014
		c0.05,0.021,0.082,0.071,0.08,0.126v0.334c0,0.267,0.217,0.484,0.483,0.484h3.867c0.267,0,0.483,0.216,0.483,0.483v0.967
		c0,0.267-0.217,0.483-0.483,0.483h-3.867c-0.267,0-0.483,0.217-0.483,0.484v0.334c0,0.054-0.031,0.103-0.08,0.126
		c-0.049,0.023-0.106,0.015-0.148-0.019l-2.137-1.78C10.841,13.183,10.822,13.143,10.822,13.1L10.822,13.1z M10.822,13.1"/>
	<path style="stroke:#000000;stroke-width:0.5;stroke-miterlimit:10;" d="M21.059,18.05l-2.141-1.784
		c-0.309-0.258-0.733-0.327-1.107-0.181c-0.375,0.145-0.641,0.483-0.695,0.881h-3.394c-0.801,0-1.45,0.649-1.45,1.45v0.967
		c0,0.801,0.649,1.45,1.45,1.45h3.394c0.048,0.372,0.284,0.694,0.625,0.852c0.148,0.069,0.309,0.106,0.472,0.106
		c0.258-0.001,0.507-0.092,0.705-0.257l2.145-1.788c0.249-0.212,0.392-0.522,0.391-0.849C21.453,18.57,21.308,18.26,21.059,18.05
		L21.059,18.05z M20.44,19.007l-2.14,1.783c-0.041,0.035-0.099,0.042-0.148,0.019c-0.049-0.023-0.08-0.072-0.08-0.125V20.35
		c0-0.267-0.217-0.484-0.483-0.484h-3.867c-0.267,0-0.483-0.216-0.483-0.483v-0.967c0-0.267,0.217-0.483,0.483-0.483h3.867
		c0.267,0,0.483-0.217,0.483-0.484v-0.334c0-0.054,0.031-0.103,0.08-0.126c0.049-0.023,0.106-0.015,0.148,0.019l2.137,1.781
		c0.033,0.027,0.052,0.068,0.052,0.11C20.489,18.941,20.471,18.98,20.44,19.007L20.44,19.007z M20.44,19.007"/>
</g>
</svg>
