<?xml version="1.0" encoding="utf-8"?>
<!-- Generator: Adobe Illustrator 25.4.1, SVG Export Plug-In . SVG Version: 6.00 Build 0)  -->
<svg version="1.1" id="묐迹_1" xmlns="http://www.w3.org/2000/svg" xmlns:xlink="http://www.w3.org/1999/xlink" x="0px" y="0px"
	 viewBox="0 0 3907 2000" style="enable-background:new 0 0 3907 2000;" xml:space="preserve">
<style type="text/css">
	.st0{fill:#FFFFFF;}
</style>
<g>
	<rect x="1907" class="st0" width="2000" height="2000"/>
</g>
<g>
	<rect x="2006" width="2" height="2000"/>
</g>
<g>
	<rect x="2106" width="2" height="2000"/>
</g>
<g>
	<rect x="2206" width="2" height="2000"/>
</g>
<g>
	<rect x="2306" width="2" height="2000"/>
</g>
<g>
	<rect x="2406" width="2" height="2000"/>
</g>
<g>
	<rect x="2506" width="2" height="2000"/>
</g>
<g>
	<rect x="2606" width="2" height="2000"/>
</g>
<g>
	<rect x="2706" width="2" height="2000"/>
</g>
<g>
	<rect x="2806" width="2" height="2000"/>
</g>
<g>
	<rect x="2906" width="2" height="2000"/>
</g>
<g>
	<rect x="3006" width="2" height="2000"/>
</g>
<g>
	<rect x="3106" width="2" height="2000"/>
</g>
<g>
	<rect x="3206" width="2" height="2000"/>
</g>
<g>
	<rect x="3306" width="2" height="2000"/>
</g>
<g>
	<rect x="3406" width="2" height="2000"/>
</g>
<g>
	<rect x="3506" width="2" height="2000"/>
</g>
<g>
	<rect x="3606" width="2" height="2000"/>
</g>
<g>
	<rect x="3706" width="2" height="2000"/>
</g>
<g>
	<rect x="3806" width="2" height="2000"/>
</g>
<g>
	<rect x="1907" y="99" width="2000" height="2"/>
</g>
<g>
	<rect x="1907" y="199" width="2000" height="2"/>
</g>
<g>
	<rect x="1907" y="299" width="2000" height="2"/>
</g>
<g>
	<rect x="1907" y="399" width="2000" height="2"/>
</g>
<g>
	<rect x="1907" y="499" width="2000" height="2"/>
</g>
<g>
	<rect x="1907" y="599" width="2000" height="2"/>
</g>
<g>
	<rect x="1907" y="699" width="2000" height="2"/>
</g>
<g>
	<rect x="1907" y="799" width="2000" height="2"/>
</g>
<g>
	<rect x="1907" y="899" width="2000" height="2"/>
</g>
<g>
	<rect x="1907" y="999" width="2000" height="2"/>
</g>
<g>
	<rect x="1907" y="1099" width="2000" height="2"/>
</g>
<g>
	<rect x="1907" y="1199" width="2000" height="2"/>
</g>
<g>
	<rect x="1907" y="1299" width="2000" height="2"/>
</g>
<g>
	<rect x="1907" y="1399" width="2000" height="2"/>
</g>
<g>
	<rect x="1907" y="1499" width="2000" height="2"/>
</g>
<g>
	<rect x="1907" y="1599" width="2000" height="2"/>
</g>
<g>
	<rect x="1907" y="1699" width="2000" height="2"/>
</g>
<g>
	<rect x="1907" y="1799" width="2000" height="2"/>
</g>
<g>
	<rect x="1907" y="1899" width="2000" height="2"/>
</g>
<g>
	<rect y="-1" class="st0" width="2000" height="2000"/>
</g>
<g>
	<rect x="99" y="-1" width="2" height="2000"/>
</g>
<g>
	<rect x="199" y="-1" width="2" height="2000"/>
</g>
<g>
	<rect x="299" y="-1" width="2" height="2000"/>
</g>
<g>
	<rect x="399" y="-1" width="2" height="2000"/>
</g>
<g>
	<rect x="499" y="-1" width="2" height="2000"/>
</g>
<g>
	<rect x="599" y="-1" width="2" height="2000"/>
</g>
<g>
	<rect x="699" y="-1" width="2" height="2000"/>
</g>
<g>
	<rect x="799" y="-1" width="2" height="2000"/>
</g>
<g>
	<rect x="899" y="-1" width="2" height="2000"/>
</g>
<g>
	<rect x="999" y="-1" width="2" height="2000"/>
</g>
<g>
	<rect x="1099" y="-1" width="2" height="2000"/>
</g>
<g>
	<rect x="1199" y="-1" width="2" height="2000"/>
</g>
<g>
	<rect x="1299" y="-1" width="2" height="2000"/>
</g>
<g>
	<rect x="1399" y="-1" width="2" height="2000"/>
</g>
<g>
	<rect x="1499" y="-1" width="2" height="2000"/>
</g>
<g>
	<rect x="1599" y="-1" width="2" height="2000"/>
</g>
<g>
	<rect x="1699" y="-1" width="2" height="2000"/>
</g>
<g>
	<rect x="1799" y="-1" width="2" height="2000"/>
</g>
<g>
	<rect x="1899" y="-1" width="2" height="2000"/>
</g>
<g>
	<rect y="98" width="2000" height="2"/>
</g>
<g>
	<rect y="198" width="2000" height="2"/>
</g>
<g>
	<rect y="298" width="2000" height="2"/>
</g>
<g>
	<rect y="398" width="2000" height="2"/>
</g>
<g>
	<rect y="498" width="2000" height="2"/>
</g>
<g>
	<rect y="598" width="2000" height="2"/>
</g>
<g>
	<rect y="698" width="2000" height="2"/>
</g>
<g>
	<rect y="798" width="2000" height="2"/>
</g>
<g>
	<rect y="898" width="2000" height="2"/>
</g>
<g>
	<rect y="998" width="2000" height="2"/>
</g>
<g>
	<rect y="1098" width="2000" height="2"/>
</g>
<g>
	<rect y="1198" width="2000" height="2"/>
</g>
<g>
	<rect y="1298" width="2000" height="2"/>
</g>
<g>
	<rect y="1398" width="2000" height="2"/>
</g>
<g>
	<rect y="1498" width="2000" height="2"/>
</g>
<g>
	<rect y="1598" width="2000" height="2"/>
</g>
<g>
	<rect y="1698" width="2000" height="2"/>
</g>
<g>
	<rect y="1798" width="2000" height="2"/>
</g>
<g>
	<rect y="1898" width="2000" height="2"/>
</g>
</svg>
